<svg xmlns="http://www.w3.org/2000/svg" width="180" height="40" viewBox="0 0 180 40" fill="none" role="img" aria-label="PERADA GROUP">
  <rect x="0" y="2" width="36" height="36" rx="10" fill="#FFFFFF"/>
  <path fill="#0A2540" d="M11 12h6.2c3.6 0 6 2.1 6 5.4s-2.4 5.4-6 5.4H14.2V28h-3.2V12zm3.2 3.1v4.6h2.9c1.7 0 2.8-0.9 2.8-2.3s-1.1-2.3-2.8-2.3h-2.9z"/>
  <path fill="#FFFFFF" d="M48 12.5h3.1l7.2 15.2h-3.5l-1.3-2.9H52.1l-1.3 2.9h-3.4l7.2-15.2zm4.1 9.1l-2-4.5-2 4.5h4zM63.5 12.5h5.8c3.5 0 5.9 2.2 5.9 5.6 0 2.1-1 3.8-2.7 4.8l3.1 4.8h-3.7l-2.7-4.3h-2.1v4.3h-3.3V12.5zm5.4 8.8c1.8 0 2.9-1 2.9-2.6 0-1.6-1.1-2.6-2.9-2.6h-2.1v5.2h2.1zM78.8 12.5h8.5c2.8 0 4.7 1.5 4.7 3.9 0 1.7-1 3-2.6 3.5 1.8 0.4 3 1.8 3 3.8 0 2.6-2.1 4-5.3 4h-8.3V12.5zm7.9 6.1c1.5 0 2.4-0.7 2.4-1.9 0-1.2-0.9-1.8-2.4-1.8h-4.3v3.7h4.3zm0.2 6.7c1.7 0 2.7-0.8 2.7-2.1 0-1.3-1-2.1-2.7-2.1h-4.5v4.2h4.5zM95.2 12.5h5.8c3.5 0 5.9 2.2 5.9 5.6 0 2.1-1 3.8-2.7 4.8l3.1 4.8h-3.7l-2.7-4.3h-2.1v4.3h-3.3V12.5zm5.4 8.8c1.8 0 2.9-1 2.9-2.6 0-1.6-1.1-2.6-2.9-2.6h-2.1v5.2h2.1zM110.5 12.5h8.5c2.8 0 4.7 1.5 4.7 3.9 0 1.7-1 3-2.6 3.5 1.8 0.4 3 1.8 3 3.8 0 2.6-2.1 4-5.3 4h-8.3V12.5zm7.9 6.1c1.5 0 2.4-0.7 2.4-1.9 0-1.2-0.9-1.8-2.4-1.8h-4.3v3.7h4.3zm0.2 6.7c1.7 0 2.7-0.8 2.7-2.1 0-1.3-1-2.1-2.7-2.1h-4.5v4.2h4.5zM126.9 12.5h3.3v12.2h-3.3V12.5zM133.1 12.5h3.3v9.4h6.1v2.8h-9.4V12.5z"/>
  <path fill="#9CA3AF" d="M48 31.5h2.5v1.8h-2.5v-1.8zm4.8 0h1.1l2.4 1.8v-1.8h2.4v5.6h-1.1l-2.4-1.8v1.8h-2.4v-5.6zm7.2 0h4.5c1.5 0 2.5 0.9 2.5 2.1 0 0.9-0.5 1.6-1.3 1.9l1.5 1.6h-2.8l-1.2-1.4h-1.5v1.4h-2.4v-5.6zm4.1 2.1c0-0.5-0.3-0.8-0.9-0.8h-1.8v1.6h1.8c0.6 0 0.9-0.3 0.9-0.8zm5.1-2.1h2.4v5.6h-2.4v-5.6zm5.2 0h4.3c1.4 0 2.3 0.7 2.3 1.8 0 0.8-0.4 1.4-1.1 1.6 0.8 0.2 1.3 0.8 1.3 1.7 0 1.2-1 1.9-2.5 1.9h-4.3v-5.6zm3.9 2.5c0.5 0 0.8-0.3 0.8-0.7 0-0.4-0.3-0.7-0.8-0.7h-1.5v1.4h1.5zm0.1 2.7c0.6 0 0.9-0.3 0.9-0.7 0-0.4-0.3-0.7-0.9-0.7h-1.6v1.4h1.6z"/>
</svg>